<?xml version="1.0" encoding="iso-8859-1"?>
<!-- Uploaded to: SVG Repo, www.svgrepo.com, Generator: SVG Repo Mixer Tools -->
<svg fill="#000000" height="800px" width="800px" version="1.1" id="Layer_1" xmlns="http://www.w3.org/2000/svg" xmlns:xlink="http://www.w3.org/1999/xlink" 
	 viewBox="0 0 458.317 458.317" xml:space="preserve">
<g>
	<g>
		<g>
			<path d="M99.621,205.064c22.952,0,41.625-18.673,41.625-41.626c0-22.952-18.673-41.625-41.625-41.625
				c-22.953,0-41.626,18.673-41.626,41.625C57.995,186.392,76.668,205.064,99.621,205.064z M99.621,151.813
				c6.41,0,11.625,5.215,11.625,11.625c0,6.41-5.215,11.626-11.625,11.626c-6.411,0-11.626-5.216-11.626-11.626
				C87.995,157.029,93.21,151.813,99.621,151.813z"/>
			<path d="M297.095,296.817H68.889c-8.284,0-15,6.716-15,15s6.716,15,15,15h228.206c8.284,0,15-6.716,15-15
				S305.379,296.817,297.095,296.817z"/>
			<path d="M450.237,109.509c-4.964-2.582-10.953-2.187-15.534,1.026l-68.72,48.19V98.933c0-18.121-14.743-32.864-32.865-32.864
				H32.865C14.743,66.068,0,80.811,0,98.933v260.452c0,18.121,14.743,32.864,32.865,32.864h300.254
				c18.122,0,32.865-14.743,32.865-32.864V299.59l68.72,48.191c4.573,3.206,10.561,3.613,15.534,1.026
				c4.964-2.582,8.079-7.712,8.079-13.308V122.816C458.315,117.222,455.201,112.092,450.237,109.509z M335.984,359.384
				L335.984,359.384c-0.001,1.579-1.286,2.864-2.866,2.864H32.865c-1.58,0-2.865-1.285-2.865-2.864V98.933
				c0-1.579,1.285-2.864,2.865-2.864h300.254c1.58,0,2.865,1.285,2.865,2.864V359.384z M428.315,306.659l-62.332-43.711v-67.581
				l62.332-43.711V306.659z"/>
		</g>
	</g>
</g>
</svg>