<?xml version="1.0" ?>
<!DOCTYPE svg  PUBLIC '-//W3C//DTD SVG 1.1//EN'  'http://www.w3.org/Graphics/SVG/1.1/DTD/svg11.dtd'>
<!-- Uploaded to: SVG Repo, www.svgrepo.com, Generator: SVG Repo Mixer Tools -->
<svg fill="#000000" width="800px" height="800px" viewBox="0 0 32 32" style="fill-rule:evenodd;clip-rule:evenodd;stroke-linejoin:round;stroke-miterlimit:2;" version="1.1" xml:space="preserve" xmlns="http://www.w3.org/2000/svg" xmlns:serif="http://www.serif.com/" xmlns:xlink="http://www.w3.org/1999/xlink">
<g id="Icon">
<path d="M21.992,7.996c0,-3.309 -2.687,-5.996 -5.996,-5.996c-3.309,0 -5.996,2.687 -5.996,5.996l0,9.008c0,3.309 2.687,5.996 5.996,5.996c3.309,0 5.996,-2.687 5.996,-5.996c0,-0 0,-9.008 0,-9.008Zm-2,0l0,9.008c0,2.205 -1.79,3.996 -3.996,3.996c-2.205,0 -3.996,-1.791 -3.996,-3.996c0,-0 0,-9.008 0,-9.008c0,-2.205 1.791,-3.996 3.996,-3.996c2.206,0 3.996,1.791 3.996,3.996Z"/>
<path d="M15,26.951l0.01,2.054c0.002,0.551 0.452,0.997 1.004,0.995c0.552,-0.003 0.998,-0.453 0.996,-1.005l-0.01,-2.045c5.049,-0.504 8.996,-4.77 8.996,-9.95c0,-0.552 -0.448,-1 -1,-1c-0.552,-0 -1,0.448 -1,1c0,4.415 -3.585,8 -8,8c-4.415,0 -8,-3.585 -8,-8c0,-0.552 -0.448,-1 -1,-1c-0.552,-0 -1,0.448 -1,1c0,5.183 3.952,9.45 9.004,9.951Z"/>
</g>
</svg>